<svg width="58" height="20" viewBox="0 0 58 20" fill="none" xmlns="http://www.w3.org/2000/svg">
<path d="M25.162 5.032H31.49V6.222H26.59V9.344H31.21V10.534H26.59V15H25.162V5.032ZM33.1794 7.944H34.5794V15H33.1794V7.944ZM34.6914 4.864V6.348H33.0534V4.864H34.6914ZM36.852 4.696H38.252V15H36.852V4.696ZM42.3587 9.036V12.578C42.3587 13.0633 42.4613 13.4087 42.6667 13.614C42.8813 13.81 43.1753 13.908 43.5487 13.908C43.7913 13.908 44.0387 13.8707 44.2907 13.796V14.944C43.9827 15.0467 43.6327 15.098 43.2407 15.098C42.5127 15.098 41.948 14.8927 41.5467 14.482C41.1453 14.0713 40.9447 13.474 40.9447 12.69V9.036H39.5727V7.944H40.9447V6.18L42.3587 5.69V7.944H44.3047V9.036H42.3587ZM51.8306 11.5H46.7906C46.8373 13.152 47.5886 13.978 49.0446 13.978C49.8566 13.978 50.5986 13.712 51.2706 13.18L51.7046 14.188C51.3873 14.468 50.9813 14.692 50.4866 14.86C50.0013 15.0187 49.5113 15.098 49.0166 15.098C47.8873 15.098 47.0006 14.776 46.3566 14.132C45.7126 13.4787 45.3906 12.5873 45.3906 11.458C45.3906 10.7393 45.5306 10.1 45.8106 9.54C46.0999 8.98 46.5013 8.546 47.0146 8.238C47.5279 7.93 48.1113 7.776 48.7646 7.776C49.7166 7.776 50.4633 8.084 51.0046 8.7C51.5553 9.316 51.8306 10.17 51.8306 11.262V11.5ZM48.7926 8.826C48.2606 8.826 47.8266 8.98467 47.4906 9.302C47.1546 9.61933 46.9399 10.072 46.8466 10.66H50.5846C50.5286 10.0627 50.3466 9.61 50.0386 9.302C49.7306 8.98467 49.3153 8.826 48.7926 8.826ZM57.1672 7.776C57.3819 7.776 57.6059 7.80867 57.8392 7.874L57.8112 9.162C57.5592 9.06867 57.2839 9.022 56.9852 9.022C56.3412 9.022 55.8559 9.218 55.5292 9.61C55.2119 9.99267 55.0532 10.478 55.0532 11.066V15H53.6532V9.932C53.6532 9.19467 53.6159 8.532 53.5412 7.944H54.8572L54.9832 9.218C55.1699 8.75133 55.4592 8.39667 55.8512 8.154C56.2432 7.902 56.6819 7.776 57.1672 7.776Z" fill="#4B506D"/>
<path d="M13.4369 3H2.56315C2.06351 3 1.8114 3.60623 2.16542 3.96026L6.5 8.29549V13.125C6.5 13.3085 6.58955 13.4805 6.73993 13.5858L8.61493 14.8979C8.98484 15.1568 9.5 14.8944 9.5 14.437V8.29549L13.8347 3.96026C14.188 3.60694 13.9376 3 13.4369 3Z" fill="#C5C7CD"/>
</svg>
