<svg width="76" height="24" viewBox="0 0 76 24" fill="none" xmlns="http://www.w3.org/2000/svg">
<rect width="76" height="24" rx="8" fill="#F0F1F7"/>
<path d="M13.1019 8.168H15.9839C17.2672 8.168 18.2609 8.509 18.9649 9.191C19.6762 9.873 20.0319 10.8337 20.0319 12.073C20.0319 13.3197 19.6762 14.2877 18.9649 14.977C18.2609 15.659 17.2672 16 15.9839 16H13.1019V8.168ZM15.8959 14.845C17.6999 14.845 18.6019 13.921 18.6019 12.073C18.6019 10.2397 17.6999 9.323 15.8959 9.323H14.5209V14.845H15.8959ZM21.9808 8.168H27.2168V9.29H23.3668V11.457H26.9858V12.579H23.3668V14.878H27.2168V16H21.9808V8.168ZM29.0228 8.168H34.1378V9.301H30.4308V11.446H33.9178V12.59H30.4308V16H29.0228V8.168ZM40.3762 14.163H36.5482L35.7562 16H34.3262L37.8682 8.168H39.0232L42.5762 16H41.1572L40.3762 14.163ZM39.9032 13.063L38.4622 9.708L37.0212 13.063H39.9032ZM47.1035 16.099C46.0255 16.099 45.2078 15.824 44.6505 15.274C44.1005 14.7167 43.8255 13.9027 43.8255 12.832V8.168H45.2225V12.909C45.2225 13.5837 45.3801 14.097 45.6955 14.449C46.0108 14.7937 46.4801 14.966 47.1035 14.966C47.7121 14.966 48.1741 14.79 48.4895 14.438C48.8121 14.086 48.9735 13.5763 48.9735 12.909V8.168H50.3705V12.832C50.3705 13.8953 50.0918 14.7057 49.5345 15.263C48.9771 15.8203 48.1668 16.099 47.1035 16.099ZM52.512 8.168H53.931V14.834H57.594V16H52.512V8.168ZM59.6186 9.334H57.0666V8.168H63.6116V9.334H61.0486V16H59.6186V9.334Z" fill="#9FA2B4"/>
</svg>
