<svg width="87" height="12" viewBox="0 0 87 12" fill="none" xmlns="http://www.w3.org/2000/svg">
<path d="M4.836 9.096C3.98 9.096 3.244 8.924 2.628 8.58C2.02 8.228 1.552 7.728 1.224 7.08C0.904 6.424 0.744 5.636 0.744 4.716C0.744 3.804 0.904 3.024 1.224 2.376C1.552 1.72 2.016 1.22 2.616 0.875999C3.224 0.532 3.94 0.36 4.764 0.36C5.356 0.36 5.9 0.452 6.396 0.636C6.9 0.812 7.336 1.08 7.704 1.44L7.32 2.196C6.904 1.844 6.496 1.592 6.096 1.44C5.696 1.28 5.252 1.2 4.764 1.2C3.796 1.2 3.052 1.504 2.532 2.112C2.02 2.712 1.764 3.58 1.764 4.716C1.764 5.876 2.028 6.76 2.556 7.368C3.084 7.968 3.852 8.268 4.86 8.268C5.276 8.268 5.68 8.232 6.072 8.16C6.472 8.08 6.832 7.976 7.152 7.848L6.912 8.352V5.328H4.788V4.548H7.812V8.508C7.588 8.628 7.312 8.732 6.984 8.82C6.664 8.908 6.316 8.976 5.94 9.024C5.572 9.072 5.204 9.096 4.836 9.096ZM9.81334 9V4.656C9.81334 4.376 9.80534 4.096 9.78934 3.816C9.78134 3.528 9.75734 3.244 9.71734 2.964H10.6413L10.7733 4.452L10.6413 4.416C10.7533 3.888 10.9933 3.492 11.3613 3.228C11.7373 2.956 12.1573 2.82 12.6213 2.82C12.7253 2.82 12.8213 2.828 12.9093 2.844C13.0053 2.852 13.0933 2.868 13.1733 2.892L13.1493 3.78C12.9653 3.716 12.7533 3.684 12.5133 3.684C12.0973 3.684 11.7613 3.776 11.5053 3.96C11.2573 4.144 11.0733 4.38 10.9533 4.668C10.8413 4.948 10.7853 5.244 10.7853 5.556V9H9.81334ZM16.6398 9.084C16.0638 9.084 15.5598 8.956 15.1278 8.7C14.7038 8.444 14.3718 8.084 14.1318 7.62C13.8998 7.148 13.7838 6.592 13.7838 5.952C13.7838 5.32 13.8998 4.768 14.1318 4.296C14.3718 3.824 14.7038 3.46 15.1278 3.204C15.5598 2.948 16.0638 2.82 16.6398 2.82C17.2158 2.82 17.7158 2.948 18.1398 3.204C18.5718 3.46 18.9038 3.824 19.1358 4.296C19.3758 4.768 19.4958 5.32 19.4958 5.952C19.4958 6.592 19.3758 7.148 19.1358 7.62C18.9038 8.084 18.5718 8.444 18.1398 8.7C17.7158 8.956 17.2158 9.084 16.6398 9.084ZM16.6398 8.28C17.2318 8.28 17.6878 8.084 18.0078 7.692C18.3358 7.292 18.4998 6.712 18.4998 5.952C18.4998 5.208 18.3358 4.636 18.0078 4.236C17.6798 3.836 17.2238 3.636 16.6398 3.636C16.0558 3.636 15.5958 3.836 15.2598 4.236C14.9318 4.636 14.7678 5.208 14.7678 5.952C14.7678 6.712 14.9278 7.292 15.2478 7.692C15.5758 8.084 16.0398 8.28 16.6398 8.28ZM23.247 9.084C22.527 9.084 21.983 8.884 21.615 8.484C21.255 8.084 21.075 7.492 21.075 6.708V2.964H22.047V6.684C22.047 7.228 22.159 7.628 22.383 7.884C22.607 8.14 22.947 8.268 23.403 8.268C23.939 8.268 24.371 8.096 24.699 7.752C25.027 7.408 25.191 6.948 25.191 6.372V2.964H26.163V9H25.215V7.692L25.359 7.62C25.199 8.1 24.927 8.464 24.543 8.712C24.167 8.96 23.735 9.084 23.247 9.084ZM28.1368 11.592V4.656C28.1368 4.376 28.1288 4.096 28.1128 3.816C28.1048 3.528 28.0808 3.244 28.0408 2.964H28.9648L29.0728 4.212L28.9768 4.392C29.1128 3.888 29.3728 3.5 29.7568 3.228C30.1408 2.956 30.6048 2.82 31.1488 2.82C31.6768 2.82 32.1408 2.952 32.5408 3.216C32.9488 3.48 33.2648 3.848 33.4888 4.32C33.7208 4.792 33.8368 5.344 33.8368 5.976C33.8368 6.608 33.7208 7.16 33.4888 7.632C33.2648 8.096 32.9528 8.456 32.5528 8.712C32.1528 8.96 31.6848 9.084 31.1488 9.084C30.6048 9.084 30.1408 8.948 29.7568 8.676C29.3728 8.404 29.1128 8.016 28.9768 7.512L29.1088 7.392V11.592H28.1368ZM30.9688 8.28C31.5528 8.28 32.0088 8.08 32.3368 7.68C32.6648 7.28 32.8288 6.712 32.8288 5.976C32.8288 5.24 32.6648 4.668 32.3368 4.26C32.0088 3.844 31.5528 3.636 30.9688 3.636C30.3688 3.636 29.9088 3.836 29.5888 4.236C29.2688 4.636 29.1088 5.208 29.1088 5.952C29.1088 6.696 29.2688 7.272 29.5888 7.68C29.9088 8.08 30.3688 8.28 30.9688 8.28ZM35.2641 7.764H36.5001V9H35.2641V7.764ZM35.2641 3.096H36.5001V4.344H35.2641V3.096Z" fill="#9FA2B4"/>
<path d="M44.3943 9.096C43.7303 9.096 43.1223 9.008 42.5703 8.832C42.0263 8.656 41.5543 8.392 41.1543 8.04L41.5983 7.128C42.0143 7.464 42.4463 7.708 42.8943 7.86C43.3423 8.012 43.8463 8.088 44.4063 8.088C45.0463 8.088 45.5423 7.968 45.8943 7.728C46.2463 7.488 46.4223 7.148 46.4223 6.708C46.4223 6.34 46.2583 6.064 45.9303 5.88C45.6023 5.688 45.0823 5.512 44.3703 5.352C43.6903 5.208 43.1343 5.044 42.7023 4.86C42.2703 4.668 41.9303 4.416 41.6823 4.104C41.4343 3.784 41.3103 3.376 41.3103 2.88C41.3103 2.384 41.4423 1.948 41.7063 1.572C41.9703 1.188 42.3423 0.891999 42.8223 0.684C43.3103 0.468 43.8703 0.36 44.5023 0.36C45.1023 0.36 45.6623 0.452 46.1823 0.636C46.7103 0.82 47.1503 1.08 47.5023 1.416L47.0583 2.328C46.6663 2 46.2623 1.76 45.8463 1.608C45.4303 1.448 44.9863 1.368 44.5143 1.368C43.8983 1.368 43.4143 1.5 43.0623 1.764C42.7103 2.02 42.5343 2.372 42.5343 2.82C42.5343 3.204 42.6863 3.496 42.9903 3.696C43.3023 3.896 43.7983 4.076 44.4783 4.236C45.1903 4.396 45.7663 4.564 46.2063 4.74C46.6463 4.916 46.9983 5.156 47.2623 5.46C47.5263 5.764 47.6583 6.156 47.6583 6.636C47.6583 7.132 47.5263 7.564 47.2623 7.932C46.9983 8.3 46.6183 8.588 46.1223 8.796C45.6343 8.996 45.0583 9.096 44.3943 9.096ZM54.4401 2.952V9H53.2641V7.992C53.0721 8.344 52.8081 8.616 52.4721 8.808C52.1361 8.992 51.7561 9.084 51.3321 9.084C49.8761 9.084 49.1481 8.276 49.1481 6.66V2.952H50.3481V6.648C50.3481 7.144 50.4481 7.512 50.6481 7.752C50.8561 7.984 51.1681 8.1 51.5841 8.1C52.0801 8.1 52.4761 7.94 52.7721 7.62C53.0761 7.3 53.2281 6.876 53.2281 6.348V2.952H54.4401ZM59.5193 2.808C60.0393 2.808 60.5033 2.94 60.9113 3.204C61.3193 3.468 61.6353 3.84 61.8593 4.32C62.0913 4.8 62.2073 5.352 62.2073 5.976C62.2073 6.6 62.0953 7.148 61.8713 7.62C61.6473 8.084 61.3313 8.444 60.9233 8.7C60.5153 8.956 60.0473 9.084 59.5193 9.084C59.0553 9.084 58.6473 8.988 58.2953 8.796C57.9513 8.596 57.6913 8.312 57.5153 7.944V11.592H56.3153V4.656C56.3153 4.024 56.2833 3.456 56.2193 2.952H57.3473L57.4673 4.068C57.6273 3.668 57.8873 3.36 58.2473 3.144C58.6073 2.92 59.0313 2.808 59.5193 2.808ZM59.2433 8.124C59.7873 8.124 60.2113 7.936 60.5153 7.56C60.8193 7.184 60.9713 6.656 60.9713 5.976C60.9713 5.288 60.8193 4.752 60.5153 4.368C60.2113 3.976 59.7873 3.78 59.2433 3.78C58.6833 3.78 58.2553 3.968 57.9593 4.344C57.6633 4.72 57.5153 5.256 57.5153 5.952C57.5153 6.648 57.6633 7.184 57.9593 7.56C58.2633 7.936 58.6913 8.124 59.2433 8.124ZM66.9318 2.808C67.4518 2.808 67.9158 2.94 68.3238 3.204C68.7318 3.468 69.0478 3.84 69.2718 4.32C69.5038 4.8 69.6198 5.352 69.6198 5.976C69.6198 6.6 69.5078 7.148 69.2838 7.62C69.0598 8.084 68.7438 8.444 68.3358 8.7C67.9278 8.956 67.4598 9.084 66.9318 9.084C66.4678 9.084 66.0598 8.988 65.7078 8.796C65.3638 8.596 65.1038 8.312 64.9278 7.944V11.592H63.7278V4.656C63.7278 4.024 63.6958 3.456 63.6318 2.952H64.7598L64.8798 4.068C65.0398 3.668 65.2998 3.36 65.6598 3.144C66.0198 2.92 66.4438 2.808 66.9318 2.808ZM66.6558 8.124C67.1998 8.124 67.6238 7.936 67.9278 7.56C68.2318 7.184 68.3838 6.656 68.3838 5.976C68.3838 5.288 68.2318 4.752 67.9278 4.368C67.6238 3.976 67.1998 3.78 66.6558 3.78C66.0958 3.78 65.6678 3.968 65.3718 4.344C65.0758 4.72 64.9278 5.256 64.9278 5.952C64.9278 6.648 65.0758 7.184 65.3718 7.56C65.6758 7.936 66.1038 8.124 66.6558 8.124ZM73.7443 9.084C73.1523 9.084 72.6323 8.956 72.1843 8.7C71.7363 8.444 71.3883 8.08 71.1403 7.608C70.9003 7.136 70.7803 6.584 70.7803 5.952C70.7803 5.32 70.9003 4.768 71.1403 4.296C71.3883 3.816 71.7363 3.448 72.1843 3.192C72.6323 2.936 73.1523 2.808 73.7443 2.808C74.3283 2.808 74.8443 2.936 75.2923 3.192C75.7403 3.448 76.0843 3.816 76.3243 4.296C76.5723 4.768 76.6963 5.32 76.6963 5.952C76.6963 6.584 76.5723 7.136 76.3243 7.608C76.0843 8.08 75.7403 8.444 75.2923 8.7C74.8443 8.956 74.3283 9.084 73.7443 9.084ZM73.7323 8.124C74.2923 8.124 74.7203 7.94 75.0163 7.572C75.3123 7.204 75.4603 6.664 75.4603 5.952C75.4603 5.256 75.3083 4.72 75.0043 4.344C74.7083 3.968 74.2883 3.78 73.7443 3.78C73.1923 3.78 72.7643 3.968 72.4603 4.344C72.1563 4.72 72.0043 5.256 72.0043 5.952C72.0043 6.664 72.1523 7.204 72.4483 7.572C72.7523 7.94 73.1803 8.124 73.7323 8.124ZM81.225 2.808C81.409 2.808 81.601 2.836 81.801 2.892L81.777 3.996C81.561 3.916 81.325 3.876 81.069 3.876C80.517 3.876 80.101 4.044 79.821 4.38C79.549 4.708 79.413 5.124 79.413 5.628V9H78.213V4.656C78.213 4.024 78.181 3.456 78.117 2.952H79.245L79.353 4.044C79.513 3.644 79.761 3.34 80.097 3.132C80.433 2.916 80.809 2.808 81.225 2.808ZM84.9006 3.888V6.924C84.9006 7.34 84.9886 7.636 85.1646 7.812C85.3486 7.98 85.6006 8.064 85.9206 8.064C86.1286 8.064 86.3406 8.032 86.5566 7.968V8.952C86.2926 9.04 85.9926 9.084 85.6566 9.084C85.0326 9.084 84.5486 8.908 84.2046 8.556C83.8606 8.204 83.6886 7.692 83.6886 7.02V3.888H82.5126V2.952H83.6886V1.44L84.9006 1.02V2.952H86.5686V3.888H84.9006Z" fill="#4B506D"/>
</svg>
