<svg width="52" height="24" viewBox="0 0 52 24" fill="none" xmlns="http://www.w3.org/2000/svg">
<rect width="52" height="24" rx="12" fill="#FEC400"/>
<path d="M13.1019 8.168H14.5209V14.834H18.1839V16H13.1019V8.168ZM22.8035 16.099C22.0481 16.099 21.3881 15.9377 20.8235 15.615C20.2661 15.285 19.8335 14.8193 19.5255 14.218C19.2248 13.6093 19.0745 12.8943 19.0745 12.073C19.0745 11.259 19.2248 10.5513 19.5255 9.95C19.8261 9.34133 20.2551 8.87567 20.8125 8.553C21.3771 8.23033 22.0408 8.069 22.8035 8.069C23.5661 8.069 24.2261 8.23033 24.7835 8.553C25.3481 8.87567 25.7771 9.34133 26.0705 9.95C26.3711 10.5513 26.5215 11.259 26.5215 12.073C26.5215 12.8943 26.3711 13.6093 26.0705 14.218C25.7698 14.8193 25.3408 15.285 24.7835 15.615C24.2261 15.9377 23.5661 16.099 22.8035 16.099ZM22.8035 14.966C23.5295 14.966 24.0941 14.7167 24.4975 14.218C24.9008 13.7193 25.1025 13.0043 25.1025 12.073C25.1025 11.149 24.9008 10.4413 24.4975 9.95C24.0941 9.45133 23.5295 9.202 22.8035 9.202C22.0775 9.202 21.5128 9.44767 21.1095 9.939C20.7061 10.4303 20.5045 11.1417 20.5045 12.073C20.5045 13.0043 20.7061 13.7193 21.1095 14.218C21.5128 14.7167 22.0775 14.966 22.8035 14.966ZM39.4908 8.168L36.7188 16H35.5638L33.5948 10.368L31.6038 16H30.4488L27.6878 8.168H29.1288L31.0868 14.009L33.1218 8.168H34.1338L36.1248 14.053L38.1268 8.168H39.4908Z" fill="white"/>
</svg>
