<svg width="76" height="24" viewBox="0 0 76 24" fill="none" xmlns="http://www.w3.org/2000/svg">
<rect width="76" height="24" rx="12" fill="#29CC97"/>
<path d="M19.9841 8.168V16H18.9281L14.7041 10.511V16H13.3841V8.168H14.4401L18.6531 13.646V8.168H19.9841ZM25.6638 16.099C24.9085 16.099 24.2485 15.9377 23.6838 15.615C23.1265 15.285 22.6938 14.8193 22.3858 14.218C22.0852 13.6093 21.9348 12.8943 21.9348 12.073C21.9348 11.259 22.0852 10.5513 22.3858 9.95C22.6865 9.34133 23.1155 8.87567 23.6728 8.553C24.2375 8.23033 24.9012 8.069 25.6638 8.069C26.4265 8.069 27.0865 8.23033 27.6438 8.553C28.2085 8.87567 28.6375 9.34133 28.9308 9.95C29.2315 10.5513 29.3818 11.259 29.3818 12.073C29.3818 12.8943 29.2315 13.6093 28.9308 14.218C28.6302 14.8193 28.2012 15.285 27.6438 15.615C27.0865 15.9377 26.4265 16.099 25.6638 16.099ZM25.6638 14.966C26.3898 14.966 26.9545 14.7167 27.3578 14.218C27.7612 13.7193 27.9628 13.0043 27.9628 12.073C27.9628 11.149 27.7612 10.4413 27.3578 9.95C26.9545 9.45133 26.3898 9.202 25.6638 9.202C24.9378 9.202 24.3732 9.44767 23.9698 9.939C23.5665 10.4303 23.3648 11.1417 23.3648 12.073C23.3648 13.0043 23.5665 13.7193 23.9698 14.218C24.3732 14.7167 24.9378 14.966 25.6638 14.966ZM37.7813 16H36.2853L35.2843 13.393C35.1963 13.151 35.0606 12.9823 34.8773 12.887C34.6939 12.7917 34.4556 12.744 34.1623 12.744H32.7433V16H31.3353V8.168H34.6903C35.5776 8.168 36.2523 8.36233 36.7143 8.751C37.1763 9.13967 37.4073 9.697 37.4073 10.423C37.4073 10.9437 37.2679 11.3873 36.9893 11.754C36.7179 12.1133 36.3293 12.37 35.8233 12.524C36.2853 12.6193 36.6189 12.942 36.8243 13.492L37.7813 16ZM34.4923 11.644C35.0276 11.644 35.4236 11.545 35.6803 11.347C35.9369 11.149 36.0653 10.8483 36.0653 10.445C36.0653 10.049 35.9369 9.75567 35.6803 9.565C35.4309 9.367 35.0349 9.268 34.4923 9.268H32.7213V11.644H34.4923ZM47.1929 8.168V16H45.9389V11.138L43.8599 16H42.9249L40.8349 11.193V16H39.5809V8.168H40.7029L43.3979 14.295L46.0709 8.168H47.1929ZM54.6076 14.163H50.7796L49.9876 16H48.5576L52.0996 8.168H53.2546L56.8076 16H55.3886L54.6076 14.163ZM54.1346 13.063L52.6936 9.708L51.2526 13.063H54.1346ZM58.1546 8.168H59.5736V14.834H63.2366V16H58.1546V8.168Z" fill="white"/>
</svg>
