<svg width="53" height="20" viewBox="0 0 53 20" fill="none" xmlns="http://www.w3.org/2000/svg">
<path d="M28.424 15.112C27.6493 15.112 26.94 15.0093 26.296 14.804C25.6613 14.5987 25.1107 14.2907 24.644 13.88L25.162 12.816C25.6473 13.208 26.1513 13.4927 26.674 13.67C27.1967 13.8473 27.7847 13.936 28.438 13.936C29.1847 13.936 29.7633 13.796 30.174 13.516C30.5847 13.236 30.79 12.8393 30.79 12.326C30.79 11.8967 30.5987 11.5747 30.216 11.36C29.8333 11.136 29.2267 10.9307 28.396 10.744C27.6027 10.576 26.954 10.3847 26.45 10.17C25.946 9.946 25.5493 9.652 25.26 9.288C24.9707 8.91467 24.826 8.43867 24.826 7.86C24.826 7.28133 24.98 6.77267 25.288 6.334C25.596 5.886 26.03 5.54067 26.59 5.298C27.1593 5.046 27.8127 4.92 28.55 4.92C29.25 4.92 29.9033 5.02733 30.51 5.242C31.126 5.45667 31.6393 5.76 32.05 6.152L31.532 7.216C31.0747 6.83333 30.6033 6.55333 30.118 6.376C29.6327 6.18933 29.1147 6.096 28.564 6.096C27.8453 6.096 27.2807 6.25 26.87 6.558C26.4593 6.85667 26.254 7.26733 26.254 7.79C26.254 8.238 26.4313 8.57867 26.786 8.812C27.15 9.04533 27.7287 9.25533 28.522 9.442C29.3527 9.62867 30.0247 9.82467 30.538 10.03C31.0513 10.2353 31.462 10.5153 31.77 10.87C32.078 11.2247 32.232 11.682 32.232 12.242C32.232 12.8207 32.078 13.3247 31.77 13.754C31.462 14.1833 31.0187 14.5193 30.44 14.762C29.8707 14.9953 29.1987 15.112 28.424 15.112ZM37.1334 15.098C36.4427 15.098 35.836 14.9487 35.3134 14.65C34.7907 14.3513 34.3847 13.9267 34.0954 13.376C33.8154 12.8253 33.6754 12.1813 33.6754 11.444C33.6754 10.7067 33.8154 10.0627 34.0954 9.512C34.3847 8.952 34.7907 8.52267 35.3134 8.224C35.836 7.92533 36.4427 7.776 37.1334 7.776C37.8147 7.776 38.4167 7.92533 38.9394 8.224C39.462 8.52267 39.8634 8.952 40.1434 9.512C40.4327 10.0627 40.5774 10.7067 40.5774 11.444C40.5774 12.1813 40.4327 12.8253 40.1434 13.376C39.8634 13.9267 39.462 14.3513 38.9394 14.65C38.4167 14.9487 37.8147 15.098 37.1334 15.098ZM37.1194 13.978C37.7727 13.978 38.272 13.7633 38.6174 13.334C38.9627 12.9047 39.1354 12.2747 39.1354 11.444C39.1354 10.632 38.958 10.0067 38.6034 9.568C38.258 9.12933 37.768 8.91 37.1334 8.91C36.4894 8.91 35.99 9.12933 35.6354 9.568C35.2807 10.0067 35.1034 10.632 35.1034 11.444C35.1034 12.2747 35.276 12.9047 35.6214 13.334C35.976 13.7633 36.4754 13.978 37.1194 13.978ZM45.9441 7.776C46.1588 7.776 46.3828 7.80867 46.6161 7.874L46.5881 9.162C46.3361 9.06867 46.0608 9.022 45.7621 9.022C45.1181 9.022 44.6328 9.218 44.3061 9.61C43.9888 9.99267 43.8301 10.478 43.8301 11.066V15H42.4301V9.932C42.4301 9.19467 42.3928 8.532 42.3181 7.944H43.6341L43.7601 9.218C43.9468 8.75133 44.2361 8.39667 44.6281 8.154C45.0201 7.902 45.4588 7.776 45.9441 7.776ZM50.3157 9.036V12.578C50.3157 13.0633 50.4184 13.4087 50.6237 13.614C50.8384 13.81 51.1324 13.908 51.5057 13.908C51.7484 13.908 51.9957 13.8707 52.2477 13.796V14.944C51.9397 15.0467 51.5897 15.098 51.1977 15.098C50.4697 15.098 49.905 14.8927 49.5037 14.482C49.1024 14.0713 48.9017 13.474 48.9017 12.69V9.036H47.5297V7.944H48.9017V6.18L50.3157 5.69V7.944H52.2617V9.036H50.3157Z" fill="#4B506D"/>
<path d="M1.12857 5.26839L3.31563 3.12548C3.48647 2.95815 3.7636 2.9582 3.93434 3.12548L6.12132 5.26839C6.39667 5.53812 6.20059 6.00001 5.81195 6.00001H4.5V14.5714C4.5 14.8081 4.30414 15 4.0625 15H3.1875C2.94586 15 2.75 14.8081 2.75 14.5714V6.00001H1.43794C1.04853 6.00001 0.853791 5.53758 1.12857 5.26839V5.26839ZM7.5625 4.7143H14.5625C14.8041 4.7143 15 4.52243 15 4.28573V3.42858C15 3.19188 14.8041 3.00001 14.5625 3.00001H7.5625C7.32086 3.00001 7.125 3.19188 7.125 3.42858V4.28573C7.125 4.52243 7.32086 4.7143 7.5625 4.7143ZM7.125 7.71429V6.85715C7.125 6.62045 7.32086 6.42858 7.5625 6.42858H12.8125C13.0541 6.42858 13.25 6.62045 13.25 6.85715V7.71429C13.25 7.951 13.0541 8.14286 12.8125 8.14286H7.5625C7.32086 8.14286 7.125 7.951 7.125 7.71429ZM7.125 14.5714V13.7143C7.125 13.4776 7.32086 13.2857 7.5625 13.2857H9.3125C9.55414 13.2857 9.75 13.4776 9.75 13.7143V14.5714C9.75 14.8081 9.55414 15 9.3125 15H7.5625C7.32086 15 7.125 14.8081 7.125 14.5714ZM7.125 11.1429V10.2857C7.125 10.049 7.32086 9.85715 7.5625 9.85715H11.0625C11.3041 9.85715 11.5 10.049 11.5 10.2857V11.1429C11.5 11.3796 11.3041 11.5714 11.0625 11.5714H7.5625C7.32086 11.5714 7.125 11.3796 7.125 11.1429Z" fill="#C5C7CD"/>
</svg>
