<svg width="74" height="24" viewBox="0 0 74 24" fill="none" xmlns="http://www.w3.org/2000/svg">
<rect width="74" height="24" rx="8" fill="#FEC400"/>
<path d="M17.0307 16.099C15.9527 16.099 15.135 15.824 14.5777 15.274C14.0277 14.7167 13.7527 13.9027 13.7527 12.832V8.168H15.1497V12.909C15.1497 13.5837 15.3074 14.097 15.6227 14.449C15.938 14.7937 16.4074 14.966 17.0307 14.966C17.6394 14.966 18.1014 14.79 18.4167 14.438C18.7394 14.086 18.9007 13.5763 18.9007 12.909V8.168H20.2977V12.832C20.2977 13.8953 20.019 14.7057 19.4617 15.263C18.9044 15.8203 18.094 16.099 17.0307 16.099ZM28.8853 16H27.3893L26.3883 13.393C26.3003 13.151 26.1646 12.9823 25.9813 12.887C25.798 12.7917 25.5596 12.744 25.2663 12.744H23.8473V16H22.4393V8.168H25.7943C26.6816 8.168 27.3563 8.36233 27.8183 8.751C28.2803 9.13967 28.5113 9.697 28.5113 10.423C28.5113 10.9437 28.372 11.3873 28.0933 11.754C27.822 12.1133 27.4333 12.37 26.9273 12.524C27.3893 12.6193 27.723 12.942 27.9283 13.492L28.8853 16ZM25.5963 11.644C26.1316 11.644 26.5276 11.545 26.7843 11.347C27.041 11.149 27.1693 10.8483 27.1693 10.445C27.1693 10.049 27.041 9.75567 26.7843 9.565C26.535 9.367 26.139 9.268 25.5963 9.268H23.8253V11.644H25.5963ZM37.1432 11.765V15.527C36.7839 15.703 36.3512 15.8423 35.8452 15.945C35.3392 16.0477 34.8222 16.099 34.2942 16.099C33.4875 16.099 32.7872 15.9377 32.1932 15.615C31.5992 15.2923 31.1445 14.8303 30.8292 14.229C30.5139 13.6277 30.3562 12.909 30.3562 12.073C30.3562 11.2517 30.5139 10.5403 30.8292 9.939C31.1445 9.33767 31.5919 8.87567 32.1712 8.553C32.7579 8.23033 33.4435 8.069 34.2282 8.069C34.7782 8.069 35.2915 8.14967 35.7682 8.311C36.2522 8.47233 36.6555 8.69967 36.9782 8.993L36.4942 10.027C36.1275 9.741 35.7682 9.53567 35.4162 9.411C35.0642 9.28633 34.6792 9.224 34.2612 9.224C33.4545 9.224 32.8422 9.466 32.4242 9.95C32.0135 10.434 31.8082 11.1417 31.8082 12.073C31.8082 13.0337 32.0209 13.7597 32.4462 14.251C32.8715 14.735 33.5059 14.977 34.3492 14.977C34.8625 14.977 35.3685 14.9073 35.8672 14.768V12.788H34.1732V11.765H37.1432ZM39.241 8.168H44.477V9.29H40.627V11.457H44.246V12.579H40.627V14.878H44.477V16H39.241V8.168ZM52.883 8.168V16H51.827L47.603 10.511V16H46.283V8.168H47.339L51.552 13.646V8.168H52.883ZM56.9237 9.334H54.3717V8.168H60.9167V9.334H58.3537V16H56.9237V9.334Z" fill="white"/>
</svg>
